<?xml version="1.0" encoding="utf-8"?>
<svg xmlns="http://www.w3.org/2000/svg" xmlns:xlink="http://www.w3.org/1999/xlink" version= "1.1" width="1578px" height="1578px" viewBox="-429 -75 1578 1578">
<g id="layer1">
<g style="fill:rgb(0,0,0); fill-opacity:1.0; stroke-linejoin: miter">
<path d="M-429.001,-76.39177C-429.36987,-76.39177,-429.7236,-76.24524,-429.98444,-75.98442C-430.24527,-75.7236,-430.39178,-75.36986,-430.39178,-75.001L-430.39078,1503.0C-430.39078,1503.7681,-429.7681,1504.3907,-429.0,1504.3907L1149.001,1504.3917C1149.3699,1504.3917,1149.7235,1504.2452,1149.9844,1503.9844C1150.2452,1503.7235,1150.3917,1503.3699,1150.3917,1503.001L1150.3907,-75.0C1150.3907,-75.7681,1149.7681,-76.39077,1149.0,-76.39077L-429.001,-76.39177 Z"/>
</g>
<g style="fill:rgb(255,255,255); fill-opacity:1.0; stroke-linejoin: miter">
<path d="M1034.1764,714.47925L1028.1399,804.2112Q985.222,1075.3872,776.9856,1237.9727Q567.3079,1400.427,283.1659,1369.7224Q11.989215,1326.8049,-150.59593,1118.568Q-202.69006,1051.2563,-236.41519,971.87915L-264.7602,890.2739Q-288.11914,806.04553,-288.38174,714.4794Q-281.29056,433.4778,-94.69741,246.88458Q91.8957,60.29181,372.89743,53.200947Q653.8994,60.291924,840.4921,246.88452Q1027.0857,433.4777,1034.1764,714.47925 Z"/>
</g>
<g style="fill:rgb(0,0,0); fill-opacity:1.0; stroke-linejoin: miter">
<path d="M218.47238,208.92302C216.3371,209.99062,214.73547,211.45848,214.73547,212.25957C214.73547,213.19368,212.06636,213.46074,207.12843,212.92671C202.85762,212.52638,198.45354,212.25954,197.38594,212.25954C196.31828,212.25954,192.98177,212.25954,190.0457,212.25954C187.10954,212.25954,181.77138,213.19368,178.16792,214.39473C172.82957,216.12975,171.22804,216.12971,168.5589,214.79497C164.95552,212.79323,144.26941,213.8608,139.86537,216.26299C138.39734,217.06401,132.92542,217.998,127.58721,218.3983C117.1774,219.19917,111.70556,221.33446,107.03459,226.27243C105.43305,228.0073,102.63042,229.47534,100.76202,229.47534C98.89361,229.47534,97.02521,230.00922,96.62476,230.81009C96.22447,231.47736,94.62293,232.14465,93.28833,232.14465C91.8203,232.14465,90.085396,233.3457,89.28459,234.81375C88.483864,236.28192,86.615456,237.4831,85.14734,237.4831C83.679306,237.4831,82.211266,238.28366,81.810905,239.35141C81.27711,240.81946,80.075935,240.81946,76.20564,239.88525C70.33343,238.15024,65.79589,238.15024,55.78644,239.48483L48.31284,240.5524L42.707558,234.94711C34.566574,226.80609,31.363575,227.60693,26.959467,238.81732C25.091066,243.62189,22.154928,249.36057,20.42003,251.76291C18.685059,254.03171,17.217026,256.56747,17.217026,257.36816C17.217022,258.83618,6.0064645,264.17462,3.0704033,264.17462C2.0027385,264.17462,1.2020032,264.84177,1.2020032,265.50906C1.2020032,266.3098,0.13433072,267.24408,-1.0668409,267.77795C-4.9371405,269.11246,-13.211545,278.9885,-14.012287,283.25903C-14.41264,285.39432,-15.747181,287.9301,-16.948353,288.73087C-19.884418,290.9995,-22.553614,307.54846,-20.418276,310.88492C-18.149448,314.6219,-18.416447,316.62363,-21.619379,318.62543C-23.087412,319.5597,-25.222742,322.49588,-26.290483,325.0315C-27.35808,327.5673,-29.89386,330.63666,-32.029205,331.9714C-34.03103,333.17255,-37.23403,336.1086,-39.10244,338.244C-41.237774,340.77957,-44.97466,342.915,-48.97839,344.1161C-59.2547,347.0523,-64.72649,350.38864,-66.32794,354.5259C-67.12874,356.52765,-68.59679,360.13107,-69.530945,362.5334C-70.465164,364.93558,-72.3336,367.20453,-73.66818,367.60477C-75.00279,368.13864,-76.20389,369.33978,-76.20389,370.40753C-76.20389,371.47498,-77.004684,372.2757,-78.07236,372.2757C-81.27532,372.2757,-88.21516,386.6893,-88.21516,393.22888C-88.21516,396.43167,-88.749016,398.9676,-89.54977,398.9676C-93.68696,398.9676,-108.23397,420.4542,-108.23397,426.7267C-108.23397,427.394,-110.369255,430.59695,-112.90497,433.6666C-116.90869,438.47116,-117.44252,440.07278,-116.77527,443.67618C-116.37489,446.2117,-116.64183,448.34692,-117.44252,448.88098C-118.2433,449.41467,-118.9106,452.08405,-118.9106,454.75305C-118.9106,458.48993,-118.51024,459.15717,-117.576035,457.68915C-116.508316,455.95422,-115.707565,456.35455,-112.90497,459.6911C-108.36741,465.16272,-107.700096,468.3659,-110.10238,473.037C-112.771515,478.10834,-112.771515,478.37518,-109.43507,485.44855C-105.83173,492.9223,-106.3655,506.26794,-110.769615,514.6758C-112.371124,518.0123,-113.572266,522.8168,-113.572266,526.42035C-113.572266,530.0236,-114.506454,534.0274,-115.97449,536.16266C-117.30911,538.16455,-119.04407,540.9672,-119.711365,542.4354C-120.512054,543.9034,-122.51398,545.7717,-123.982056,546.57245L-126.91812,548.0406L-123.581665,550.84326C-118.9106,554.8468,-115.707565,563.12146,-117.44252,566.1909C-119.97827,570.1946,-117.576035,583.0066,-113.30531,589.14575C-111.170006,592.0816,-108.234,596.486,-106.632454,598.75464C-105.16444,601.157,-103.29597,603.15894,-102.36176,603.15894C-101.56103,603.15894,-99.82606,604.3601,-98.49146,605.82794C-97.29034,607.29626,-95.02155,608.4974,-93.55352,608.4974C-91.952,608.4974,-90.88436,609.43146,-90.88436,610.6325C-90.88436,611.8337,-87.54786,616.10425,-83.544136,619.9748C-79.540344,623.9785,-76.20393,627.7152,-76.20393,628.38275C-76.20393,629.04987,-75.269775,630.251,-74.2021,631.1852C-73.13446,632.1195,-72.200195,634.922,-72.200195,637.45776C-72.200195,639.9936,-71.53291,643.32983,-70.59874,644.9313C-69.79794,646.5329,-68.73027,650.00275,-68.329895,652.53864C-67.529175,656.80927,-66.594925,657.6098,-57.786728,661.8806C-52.58182,664.4161,-48.177708,667.21893,-48.177708,668.1532C-48.177708,669.0874,-46.042377,670.82227,-43.50668,672.02344C-40.970882,673.22455,-38.835564,674.69257,-38.835564,675.2263C-38.835564,675.7603,-36.70022,677.22845,-34.164597,678.6965C-31.628815,680.0308,-29.493477,681.89935,-29.493477,682.70013C-29.493477,684.7021,-17.08183,696.1795,-13.211598,697.9146C-11.476628,698.7152,-7.739752,700.7171,-4.803687,702.5854C2.0026927,706.7227,7.207594,706.7227,12.679368,702.5854C15.081638,700.7171,18.017715,699.24896,19.21888,699.24896C20.419981,699.24896,23.089117,698.4483,24.957514,697.3806C31.363525,694.0444,33.765793,693.37695,42.574062,693.11017C52.983814,692.7097,67.26394,694.84503,72.201836,697.3807C76.739365,699.78296,81.810844,699.78296,83.946175,697.2472C84.88042,696.17957,87.68306,694.97845,90.48563,694.4446C93.15476,693.9107,96.2244,692.8433,97.29201,691.90906C101.29574,688.5725,110.637886,684.5687,114.64162,684.5687C116.77695,684.5687,118.64535,684.035,118.64535,683.2342C118.64535,681.09894,128.6548,676.6947,131.59079,677.362C133.19234,677.7624,134.79385,677.49554,135.19415,676.6947C135.86154,675.7605,141.46674,675.22644,149.74115,675.22644C163.3539,675.2265,163.48732,675.2265,167.09076,679.36395C169.09259,681.6327,170.69414,684.03503,170.69414,684.70233C170.69414,685.3695,171.62837,686.3038,172.69597,686.7041C173.76363,687.2378,174.69786,688.706,174.69786,690.174C174.69786,691.50867,176.03246,695.7795,177.50044,699.38275L180.30315,705.9221L190.7129,705.9232C197.38585,705.9221,201.52303,705.3884,202.45726,704.1872C203.39151,703.1196,206.86137,702.7193,213.26746,702.9862C221.6753,703.38654,222.60953,703.7868,223.00989,706.32275C223.27675,707.9242,225.1452,710.05945,227.14705,710.9935C229.14894,712.0612,231.4177,714.1966,232.08499,715.93176C232.75229,717.66656,233.95338,719.4015,234.62068,719.93536C235.42146,720.33575,236.08878,724.4729,236.0888,729.01074C235.95541,735.4167,235.28801,738.4862,232.75233,742.6236C229.28238,748.2286,228.48167,753.16675,230.75043,754.63477C231.68459,755.1686,231.68459,756.23615,230.75043,757.9713C230.0832,759.3056,229.4159,762.37524,229.4159,764.644C229.4159,769.9825,226.07938,777.8564,223.41025,778.79047C220.34077,779.9916,221.008,785.46344,224.74486,791.06885C226.61328,793.73785,228.0812,796.8074,228.0812,798.0083C228.0812,799.07623,229.01546,801.2114,230.0832,802.546C231.15088,804.0141,232.08502,806.14954,232.08502,807.3508C232.08502,808.552,234.35388,811.0877,237.02298,812.8226C239.82564,814.55743,244.36324,819.4956,247.16579,823.6326C249.83495,827.90356,252.90459,831.3733,253.83884,831.3733C254.77298,831.3733,256.1075,832.5743,256.7748,833.90906C262.7805,845.6534,265.1827,851.926,266.78418,859.3995C267.85184,864.20404,269.85376,870.2096,271.3218,872.74524C274.52487,878.0837,276.79364,883.95575,279.46274,893.298C281.19766,899.57056,281.19766,900.10443,278.79538,901.70593C275.59253,903.97455,275.459,907.1776,278.12823,912.24915C279.1959,914.3843,280.13004,917.72076,280.13004,919.72266C280.13004,921.7244,281.5981,925.59454,283.46646,928.26385C289.60553,937.3389,286.66946,954.95557,278.26166,959.4933C276.39316,960.42737,274.79172,962.02893,274.79172,962.8297C274.7916,963.7638,273.8574,965.2318,272.78964,966.16614C271.72208,967.1002,270.7879,969.36914,270.7879,971.3711C270.7879,973.2394,269.5868,976.30896,268.11868,978.17737C266.51715,980.1793,265.4495,983.6494,265.4495,986.98596C265.4495,989.9221,264.51532,993.5255,263.44766,994.9934C262.3801,996.328,261.44583,999.1306,261.44583,1001.13245C261.44583,1003.1344,260.77853,1005.1361,259.9778,1005.53674C259.17697,1006.204,258.91013,1009.0066,259.44385,1013.54407C260.11124,1018.08167,259.8443,1020.8843,258.91013,1021.4182C258.10928,1021.9519,257.442,1026.2225,257.442,1031.2938C257.442,1040.5027,260.24463,1048.7771,264.64874,1051.9799C265.7164,1052.9142,267.58484,1056.5173,268.91937,1060.2543C270.12048,1063.8577,271.85547,1067.8612,272.6562,1068.9292C274.92502,1071.5983,278.7953,1082.4084,278.7953,1085.745C278.7953,1087.213,280.66382,1090.5496,282.7991,1092.9515C285.0679,1095.3539,286.80286,1098.023,286.80286,1098.6901C286.80286,1099.3575,288.1374,1101.6263,289.60544,1103.8949C292.1412,1107.3647,292.40817,1109.5004,292.27466,1122.3123C292.00763,1134.0565,292.5416,1137.7933,294.40988,1141.2632C296.0115,1144.1993,296.81216,1149.0037,296.94565,1155.6768C297.21268,1167.6879,299.74838,1180.9003,302.28403,1183.8364C303.35175,1184.904,304.1524,1186.9059,304.1524,1188.1072C304.1524,1189.1748,307.22195,1193.1783,310.82535,1196.9153C314.56213,1200.6522,317.4983,1204.389,317.4983,1205.3234C317.4983,1206.2576,318.43246,1208.7932,319.63354,1211.0621C320.7012,1213.1973,322.03583,1217.8683,322.4362,1221.3383C322.83664,1224.9418,324.03775,1228.4115,324.972,1229.2124C326.03958,1230.0132,326.8403,1231.4812,326.8403,1232.4155C326.8403,1234.4174,333.24637,1246.1615,334.98135,1247.0958C337.25012,1248.5637,336.18246,1257.2388,333.24637,1262.3102L330.3102,1267.5149L333.9136,1272.9868C335.91556,1275.9229,337.51703,1279.6597,337.51703,1281.1277C337.51703,1282.5958,338.0508,1283.7969,338.58466,1283.7969C339.11847,1283.7969,341.6542,1285.7988,344.18988,1288.201C346.72565,1290.6034,350.46246,1293.2723,352.4644,1294.0734C355.53387,1295.408,356.73502,1295.2744,361.13922,1292.2048C365.14288,1289.4021,367.54517,1288.7349,372.75,1288.8684C377.68802,1289.1353,380.09024,1288.4681,382.09213,1286.5996C385.29507,1283.6636,397.0394,1282.8628,412.65408,1284.4644C419.32693,1285.2651,421.59576,1285.1316,421.59576,1283.9305C421.59576,1282.8628,422.66345,1282.596,424.1315,1283.1298C425.59943,1283.53,427.46802,1282.9962,428.66913,1281.795C429.87018,1280.7274,432.80627,1279.7933,435.4755,1279.7933C438.01117,1279.7933,440.54684,1279.2595,440.94724,1278.4587C441.3475,1277.7914,443.21603,1277.1241,444.9509,1277.1241C449.2216,1277.1241,469.10678,1262.0436,474.04486,1254.8368C476.31354,1251.6337,478.58237,1249.098,479.11624,1249.098C481.11807,1249.098,490.59363,1240.5566,493.2628,1236.1526C494.86438,1233.4833,496.5992,1230.9479,497.2666,1230.5474C497.8004,1230.1471,499.26837,1227.6113,500.46954,1225.0756C503.6726,1218.2692,513.94885,1206.3914,516.75165,1206.3914C518.0861,1206.3914,519.9545,1204.3895,521.42267,1201.4535C522.6237,1198.6509,524.09174,1196.1151,524.6257,1195.7147C525.026,1195.3143,525.8267,1192.6451,526.3606,1189.7091C526.89435,1186.7728,528.22906,1181.835,529.2966,1178.632C530.7647,1174.6282,531.1651,1170.6245,530.6313,1165.0193C529.83057,1157.6791,529.96405,1157.0117,533.16693,1154.4763C535.03534,1153.008,539.30597,1150.8728,542.77594,1149.5381C552.6519,1146.0682,557.58984,1143.3989,563.5954,1138.1942C568.6668,1133.6565,568.93365,1133.1226,567.1988,1130.0527C565.8642,1127.5175,565.8642,1125.9159,566.93176,1123.914C568.6668,1120.711,568.9337,1108.1659,567.1988,1107.0983C566.6649,1106.698,565.7308,1101.0927,565.19696,1094.6866C564.52966,1086.8125,563.3285,1081.6077,561.59357,1078.8053C559.45825,1075.3352,559.32477,1074.134,560.79285,1071.198C561.59357,1069.1962,563.46204,1067.5945,564.6632,1067.5945C567.1988,1067.5945,573.7383,1061.9894,573.7383,1059.854C573.7383,1059.0531,574.80585,1058.1191,576.27386,1057.5852C579.87726,1056.5175,592.42255,1044.5062,592.42255,1042.104C592.42255,1039.4349,595.0916,1036.8993,597.7608,1036.8993C598.96185,1036.8993,601.09735,1035.698,602.43176,1034.23C603.76636,1032.7618,605.90173,1031.5607,607.2363,1031.5607C608.5709,1031.5607,609.9055,1031.0269,610.4394,1030.3595C610.83966,1029.6923,612.8416,1028.7582,614.9768,1028.2244C628.05585,1025.4218,649.0087,996.06104,644.33765,987.2528C643.27014,985.3843,642.7361,979.1117,642.8698,971.23755C642.8698,964.03076,642.4693,957.8917,641.8022,957.49146C640.2005,956.5571,641.0013,942.01025,642.7361,938.9407C645.005,934.8034,643.00323,927.5966,638.4657,923.1925C635.26263,920.25653,633.7947,917.45404,633.12744,912.9165C632.5936,909.57996,631.5259,906.3769,630.7251,905.84314C628.9901,904.77545,628.58997,887.42596,630.1914,878.7511C630.9923,873.9465,630.59174,872.74554,627.12177,868.8751C622.58435,864.0707,622.18396,860.8679,625.12,852.7268C626.18774,849.65717,627.12177,845.65344,627.12177,843.91846C627.12177,842.1836,627.92267,840.3151,628.99023,839.78143C631.6594,838.31335,639.53357,822.2981,640.46765,816.6929C641.0014,813.3564,642.2025,811.4881,644.8717,810.28705C647.0071,809.2193,649.009,807.61786,649.40924,806.4167C649.8095,805.34924,651.5446,803.88116,653.4129,803.2139C655.14813,802.5465,657.0163,800.67816,657.6837,798.9431C658.3509,797.3416,659.8191,795.0729,661.0202,794.13855C662.22144,793.20435,663.1554,791.6031,663.1554,790.6687C663.1554,789.601,666.49194,785.0635,670.49554,780.2589C674.49945,775.588,677.83606,771.05035,677.83606,770.3829C677.83606,768.64813,705.19495,741.9565,707.0634,741.9565C710.13293,741.9565,719.0746,735.28345,720.8095,731.6801C721.7438,729.6784,724.5462,726.74243,727.0818,725.00714C729.4842,723.4058,733.0875,719.4019,735.0894,716.3324C737.0914,713.1294,739.7607,709.7931,740.9618,708.7256C742.1629,707.7912,743.2306,706.32336,743.2306,705.5224C743.2306,704.72174,744.69867,701.91907,746.2999,699.3834C755.7757,685.1033,757.911,681.09955,758.7119,675.76117C759.1122,672.42487,761.24756,667.3532,763.3829,664.15015C765.51807,661.0806,767.2533,656.9433,767.2533,655.07495C767.2533,653.07306,768.0538,650.80444,769.1215,650.0034C771.52374,648.0017,779.6648,631.3194,779.6648,628.51685C779.6648,627.44916,780.19867,625.71405,780.8658,624.9136C781.6666,623.97925,782.6008,615.70483,783.00134,606.49603L783.6684,589.8139L779.3979,589.81384C777.129,589.8139,773.52563,591.0151,771.39026,592.4831C769.3885,594.08466,766.3189,595.419,764.4504,595.419C762.7156,595.55273,760.4468,596.2198,759.5125,596.887C758.5784,597.6879,755.37537,598.2217,752.43915,598.08813C749.50305,597.95483,745.2326,598.75543,743.0972,599.8232C740.5614,601.1578,737.62537,601.6914,734.8228,601.1578C731.6196,600.49036,729.88477,600.8909,728.6837,602.3588C727.61597,603.56,726.0145,604.49426,724.9468,604.49426C724.01263,604.49426,722.81146,605.29486,722.41113,606.3628C721.8773,607.83075,720.8095,608.0976,718.2739,607.02985C713.0692,605.1617,708.2647,605.56195,705.19507,608.49817C703.727,609.96606,700.65765,611.43414,698.5221,611.8344C694.25146,612.63513,693.4507,611.96783,681.7065,598.75543C678.63684,595.2858,676.7685,592.4831,677.5691,592.4831C678.36993,592.4831,679.4375,591.2818,679.83795,589.81384C681.3059,585.1429,673.69885,572.86444,668.09357,570.72925C666.8924,570.3289,665.825,569.1278,665.825,568.06006C665.8248,567.12585,662.75525,563.5225,659.1518,560.05255C655.41504,556.4491,651.8117,552.1784,651.1442,550.3101C650.47705,548.575,649.00903,547.10693,648.0747,547.10693C644.7382,547.10693,631.5261,539.5,627.2555,535.22943C624.31934,532.1598,623.11816,529.75757,623.11816,526.421C623.11816,524.0188,622.5845,521.6166,621.917,521.21625C621.38324,520.81586,620.4491,517.8798,620.0487,514.5435C618.71405,505.3346,611.5075,495.3255,601.498,488.91937C598.42847,487.05084,596.4266,484.64856,596.4266,483.04724C596.4266,481.7126,595.8927,480.11102,595.092,479.71088C594.4246,479.31024,593.75726,476.90802,593.75726,474.37238C593.75726,471.8366,593.22345,469.5678,592.42285,469.0338C591.7554,468.63354,591.48846,464.62988,592.0223,459.6919C592.5563,453.15234,592.28925,450.3498,590.95465,448.61475C589.8871,447.41367,588.15204,443.94382,587.21783,441.00772C585.2161,435.00217,578.1427,426.99442,574.9398,426.99442C572.00366,426.99442,568.40027,419.12042,568.40027,412.84784C568.40027,409.64474,567.1991,406.44183,565.06384,403.5058C563.1953,401.10345,561.7273,398.30096,561.7273,397.09976C561.7273,396.03204,561.0602,394.69757,560.3927,394.297C559.5919,393.7633,557.85706,391.2275,556.38904,388.5583C554.78754,385.88907,552.5186,381.752,551.0506,379.61664C549.5825,377.34805,548.11456,374.67868,547.5807,373.61096C547.1804,372.5435,546.2461,370.67502,545.57886,369.6073C544.9115,368.53958,543.71045,366.13736,543.0431,364.2689C542.24243,362.40057,540.6409,359.06403,539.4398,356.66165C536.904,351.9907,537.83813,349.58838,541.04126,352.2576C542.109,353.19174,544.3777,353.59235,546.1127,353.05832C549.0488,352.39117,549.44916,351.457,550.11646,342.64853C550.51685,337.31027,551.5845,331.3047,552.5186,329.30292C553.8534,326.09982,553.8534,325.16556,551.98474,323.16364C550.6503,321.82935,549.716,319.29343,549.716,317.42496C549.5825,315.6901,547.84766,311.1524,545.84576,307.54904L541.9756,300.87622L527.5621,300.20905C516.4851,299.5418,511.94745,298.74094,508.74445,296.8726C505.0076,294.47037,504.07336,294.47037,497.4006,296.0717C493.53018,297.1394,487.25757,299.40802,483.3872,301.2765C476.71442,304.61298,476.31387,304.61298,471.37598,302.47763C468.57343,301.27646,464.1692,299.94202,461.6336,299.54172C459.0979,299.14114,455.76144,298.207,454.2934,297.5397C452.8254,296.87256,448.15433,295.40448,443.8836,294.06973C437.74454,292.33487,435.4758,292.068,432.80664,293.40247C428.00208,295.53778,425.86682,295.27094,424.93265,292.2013C424.13184,289.53223,415.19006,285.9288,404.9138,284.3273C400.3761,283.66003,399.57547,282.99274,399.17502,279.9231C398.77472,276.5867,398.24084,276.3197,390.23337,275.51913C375.41946,273.9175,363.40814,276.85355,359.9383,282.99268C357.40253,287.39664,356.73532,298.20688,358.8706,299.54166C361.00586,300.8761,360.47208,306.3478,357.80295,308.61685C353.53226,312.48703,348.0605,313.82147,345.52478,311.5527C344.3236,310.48514,342.72214,309.55084,342.05487,309.55084C341.38748,309.55084,340.05286,308.3498,339.11868,306.88174C338.18463,305.41357,336.44952,304.2124,335.11496,304.21243C333.78036,304.21243,331.5116,303.2784,329.91013,302.21066C328.3086,301.00952,322.56992,299.54156,317.2315,298.87418C308.95715,297.93973,307.08875,297.13913,304.55304,293.93607C302.81805,291.93414,301.48343,289.1315,301.48343,287.79703C301.48343,282.72562,298.94772,280.18985,293.8764,280.18982C291.20728,280.18982,288.00418,279.25565,286.66956,278.05447C285.2016,276.71988,280.79745,275.78577,273.85757,275.252C268.11887,274.98502,261.57944,273.78397,259.1772,272.7161C256.90833,271.6485,254.10574,270.84778,253.03807,270.84778C251.97038,270.84778,249.70157,269.51318,247.83324,267.7783C244.63014,264.84204,240.35948,262.43985,235.82185,260.97183C231.81822,259.7708,233.15277,255.36652,238.75801,251.49637C243.96292,247.89294,244.09636,247.62607,244.09636,240.0188C244.09636,235.48108,243.5625,232.14487,242.76175,232.14487C241.96101,232.14487,240.75992,230.6767,239.9591,228.9418C238.62451,226.27264,238.89145,225.07144,241.29366,222.00197C245.6979,216.39668,245.03053,213.46074,239.42523,213.46074C237.02304,213.46074,234.35391,212.65974,233.82005,211.59227C232.48561,209.32329,227.54762,206.7877,224.47798,206.7877C223.14346,206.9211,220.47435,207.85512,218.47238,208.92302 Z"/>
</g>
<g>
<g style="fill:rgb(0,0,0); fill-opacity:1.0; stroke-linejoin: miter">
<path d="M370.0318,1068.1268L369.3152,765.87866L329.44495,1063.352C307.48062,1226.8894,288.85846,1361.3015,288.1424,1362.017C287.4263,1362.7334,286.70984,1362.7334,286.2325,1362.2565C285.7549,1361.7789,303.42206,1227.6061,325.38632,1064.0679C347.58942,900.5292,365.25638,766.11676,365.01767,764.92365C364.77908,763.96844,329.20615,894.79944,285.75516,1055.4731C242.54228,1216.3855,206.2539,1347.4548,205.29837,1346.7384C204.34383,1346.0221,204.10501,1344.351,204.58249,1342.6796C208.87961,1329.7876,358.81052,769.6978,357.85562,768.9818C357.3778,768.50464,305.3319,891.6953,242.06476,1043.0587C179.0367,1194.4199,126.035995,1318.567,124.60367,1319.044C122.454834,1319.7606,122.454834,1318.8057,124.12591,1315.7021C126.03598,1312.1207,243.73611,1030.4054,343.29254,791.424C350.21576,774.47327,355.46814,760.8647,354.99045,760.8647C354.51312,760.8647,286.23245,878.326,202.91087,1022.04895C119.828384,1165.7716,51.070347,1282.7552,50.115475,1282.2783C49.160393,1281.5616,282.89005,874.74493,347.11212,765.63983C351.88715,757.52234,351.88715,757.52234,347.35077,762.0586C344.72464,764.6844,261.1644,872.35767,161.60838,1001.51685C62.291344,1130.6768,-19.597548,1235.7234,-20.313917,1235.0076C-21.03018,1234.2906,-20.55271,1232.3812,-19.358763,1230.7094C-17.926222,1229.0383,61.336468,1126.1403,156.83339,1001.99426C252.3312,877.8486,334.45877,771.60834,338.99478,765.63983C350.69357,750.8377,304.1386,796.1984,96.67039,1003.1885C-2.169174,1101.55,-83.10328,1181.0505,-83.10328,1179.8578C-83.10334,1178.664,12.871523,1081.4961,130.0944,964.03455C343.05325,750.8377,343.05325,750.5989,309.62952,775.9056C291.24634,789.7523,183.33434,872.11865,69.69206,958.7826C-111.5137,1097.2524,-155.2037,1129.7216,-136.82039,1112.0549C-134.19392,1109.6675,-27.237545,1027.7788,100.72924,930.3711C228.6952,832.9652,335.1749,751.5539,337.085,749.40564C339.23373,747.25653,337.32404,747.73395,332.30988,750.5988C216.28078,818.1631,-184.09174,1047.3555,-184.80801,1046.6396C-185.52429,1046.1619,-184.56923,1044.4905,-182.89809,1043.297C-181.22694,1041.8644,-64.242195,974.53894,76.85463,893.36633C217.95192,812.1942,334.69748,744.8693,335.89142,743.6755C338.99487,740.8101,361.6752,731.4996,55.367924,857.5554C-93.60783,918.9122,-217.75427,969.7638,-220.38052,970.4806C-239.00241,975.0166,-188.62764,953.7676,54.174324,853.9739C295.78232,754.8961,347.351,733.1711,332.3101,737.70685C324.43134,740.09406,-237.5701,889.54663,-244.25485,891.21783C-249.02985,892.173,-250.70096,891.934,-249.02985,890.2622C-247.59732,889.0692,-116.049774,853.25775,43.908077,810.76184C203.6272,768.2656,333.9817,733.1712,333.504,732.6931C333.26547,732.45465,199.56866,749.1663,36.268574,770.41376C-126.79314,791.4237,-261.92215,808.6128,-264.07077,808.3741C-281.26035,807.6581,-222.05188,799.5403,36.029755,766.35547L330.63925,728.63495L58.710384,727.20197C-90.98168,726.4858,-226.58801,725.29126,-243.06113,724.8141C-259.5347,724.33624,-136.8205,723.382,29.583721,722.66583L332.07126,721.4725L34.59716,681.60187C-128.94217,659.6372,-263.35483,641.0153,-264.07077,640.29895C-264.78702,639.5829,-264.78702,638.8665,-264.3096,638.389C-263.83212,637.91174,-129.65831,655.5788,33.880814,677.54333C197.41982,699.74677,331.83264,717.41345,333.02667,717.1749C333.98163,716.9361,203.15007,681.3635,42.47543,637.9122C-118.43715,594.7001,-249.50739,558.41016,-248.79105,557.455C-248.07477,556.5005,-246.40366,556.2617,-244.73248,556.7392C-232.07901,561.0362,328.25125,710.7289,328.9678,710.01306C329.44504,709.5354,206.01431,657.4891,54.89044,594.4609C-96.47277,531.43243,-220.61952,478.43115,-221.09697,476.99927C-221.57436,475.5666,-217.27705,476.5213,-211.54716,478.90863C-204.14622,482.2514,248.51062,671.3359,329.44504,704.7608C333.5037,706.6706,337.085,707.62537,337.085,707.38654C337.085,706.9093,219.62291,638.3896,75.89971,555.3067C-67.82378,471.98572,-184.80779,403.22803,-184.33038,402.51193C-183.6139,401.318,207.92468,626.2135,332.30988,699.2694C340.42734,704.28357,340.42734,704.28357,335.89124,699.5084C333.2651,696.8824,225.59167,613.32263,96.431755,513.7662C-32.728218,414.44913,-137.77548,332.55997,-137.05948,331.84366C-136.34317,331.1274,-134.433,331.60513,-132.7619,332.79907C-131.0907,334.23157,-28.192177,413.49426,95.95428,508.9914C220.10056,604.72736,326.3415,686.616,332.30988,691.39075C347.5897,703.08936,299.36322,653.90845,94.76059,448.58838C-3.6015463,349.9887,-83.103355,269.05447,-81.90969,269.0545C-80.71601,269.0545,16.452896,365.0288,133.9145,482.25195L347.35077,695.211L317.50818,655.81775C301.0343,634.09265,218.66814,526.18134,134.39182,415.88138C0.21809383,239.92819,-31.773384,196.95436,-14.106434,215.33827C-11.718717,217.96385,70.17006,324.9203,167.57701,452.8866C264.98474,580.85333,346.39587,687.33246,348.54477,689.24255C350.6936,691.3909,350.21576,689.48157,347.35077,684.46747C293.87244,593.02856,50.59293,168.06657,51.30921,167.35025C51.786625,166.63399,53.457973,167.58867,54.65171,169.26042C56.084206,170.93187,123.40939,287.91568,204.58202,429.01254C285.75504,570.1093,353.08066,686.8549,354.27423,688.04877C357.13947,691.3909,365.01767,710.7289,240.3939,407.5261C179.03679,258.55002,128.18414,134.40414,127.46832,131.7776C122.93175,113.39467,143.94193,163.292,243.97507,406.33206C343.29202,647.94006,364.77905,699.26965,360.24286,684.46747C357.85535,676.5888,208.40211,114.58873,206.73076,107.903786C205.77623,103.1283,206.0146,101.45753,207.68608,103.1283C208.87953,104.56162,244.69139,236.34747,287.18732,396.06613C329.68408,555.78534,364.77905,686.13837,365.2564,685.9001C365.49554,685.4224,348.78336,551.72656,327.5352,388.42664C306.52606,225.3656,289.33618,90.23722,289.57465,88.08866C290.2908,71.13745,298.40836,130.10753,331.59366,388.18765L369.31534,682.79675L370.74786,415.6437C371.46414,268.81665,372.65747,132.97235,373.13507,113.87283C373.61243,94.77357,374.56772,215.5771,375.284,382.21915L376.47772,685.4224L389.13098,589.92487C431.38864,273.83026,456.45636,89.04345,457.65,88.08874C458.36642,87.37237,459.0827,87.37237,459.56012,87.84977C460.0372,88.32722,442.3709,222.50084,420.40625,386.03937C398.203,549.5782,380.536,683.99023,380.77454,685.18365C381.0136,686.13873,416.58667,555.30743,460.03708,394.63345C503.2502,233.72183,539.3002,102.65197,540.49384,103.36816C541.4486,104.08442,541.68726,105.755684,541.21014,107.42678C536.91296,120.319,387.2206,680.40906,387.93738,681.1251C388.41452,681.60266,440.46027,558.41125,503.48895,407.04846C566.7559,255.68613,619.51794,131.54024,621.18933,131.06265C623.3382,130.3465,623.3382,131.30127,621.66656,134.40506C619.7569,137.98592,502.05634,419.7021,402.50052,658.9217C395.57666,675.6337,390.32455,689.24255,390.80173,689.24255C391.0408,689.24255,459.56,571.7806,542.6422,428.0582C625.9642,284.33502,694.72186,167.11287,695.4381,167.82896C696.3929,168.30609,630.9774,282.90216,550.2821,422.56714C469.58728,561.99225,401.3065,679.93115,398.68033,684.4679L393.9057,692.8235L399.15808,686.8549C402.02277,683.51276,485.58286,575.8398,584.6612,447.39645C683.7405,318.95294,765.6286,214.38374,766.10614,215.09993C766.8224,215.81645,766.3444,217.72627,765.15045,219.39735C763.71814,221.06853,686.1276,321.81815,592.54004,443.33743C498.9522,564.8572,417.06384,671.0978,410.379,679.6926C394.38333,700.2245,420.6448,674.67883,649.3606,446.91855C747.9618,348.55676,828.8949,269.05576,828.8949,270.24957C828.8949,271.44342,732.921,368.61136,615.93665,486.0724L402.73904,699.5084L442.13153,669.66486C463.85727,653.1919,571.76917,570.826,682.0683,486.54974C858.0219,352.37714,900.9962,320.38593,882.6126,338.0523C879.9863,340.43976,773.02936,422.32886,645.0634,519.73505C517.0968,617.14264,410.618,698.5533,408.70755,700.70184C406.55936,702.85114,408.46933,702.37317,413.48267,699.5084C540.494,625.49786,929.8833,402.75162,930.60016,403.46777C931.3159,403.94583,930.36145,405.6167,928.6898,406.81042C927.019,408.24277,810.03436,475.56787,668.9374,556.73956C527.8401,637.91296,411.33408,705.23785,409.90176,706.4322C406.79767,709.2968,383.87854,718.60736,692.5732,591.5966C926.3025,495.38342,974.0505,476.5227,967.12775,482.4914C966.64935,482.96887,842.7426,534.05963,691.61847,596.13245C450.00998,695.2108,398.44205,716.9361,413.48267,712.40045C421.36124,710.01263,983.3618,560.55994,990.0466,558.88855C994.821,557.93414,996.49225,558.1726,994.821,559.8442C993.62775,561.0373,861.60333,596.84924,701.884,639.3451C542.16504,681.8412,411.8116,716.936,412.0501,717.4136C412.5281,717.65283,546.22375,700.70184,709.52374,679.6926C872.5852,658.68286,1007.9521,641.4941,1010.10065,641.73254C1027.0519,642.4485,967.1275,650.80457,709.52374,683.7517L414.6767,721.4726L686.8435,722.9052C836.53516,723.6209,972.3802,724.815,988.85333,725.2925C1005.3263,725.77045,882.6122,726.7245,716.2089,727.44104L413.72162,728.635L711.1945,768.5047C874.7336,790.46844,1009.1462,809.09106,1009.86176,809.8074C1010.5783,810.52344,1010.5783,811.23987,1010.10065,811.71735C1009.62335,812.1947,875.4497,794.5276,711.91077,772.56354C548.3725,750.36035,413.96017,732.6933,412.76636,732.9324C411.81165,733.1711,542.64276,768.7435,703.3162,812.1945C864.2289,855.4068,995.2983,891.6958,994.58234,892.65094C993.86597,893.60645,992.19525,893.84467,990.52374,893.367C977.63165,889.06946,417.54156,739.3776,416.82516,740.0942C416.3478,740.5719,539.53876,792.6176,690.9014,855.8842C842.26465,918.91174,966.41144,971.6743,966.8885,972.86816C967.1274,974.0614,847.9948,925.3581,701.8833,864.23987C391.51822,734.84235,408.7076,741.76575,408.7076,742.9598C408.7076,743.43665,526.1691,811.71716,669.8923,895.03784C813.6154,978.1201,930.5995,1046.8789,930.12177,1047.8331C929.4058,1048.7882,522.5878,815.05945,413.48267,750.8377C405.36554,746.063,405.36554,746.063,409.90192,750.5989C412.52814,753.2253,520.2007,836.7847,649.36066,936.3404C778.5206,1035.6571,883.56696,1117.5455,882.8506,1118.2616C882.13464,1118.978,880.2246,1118.5005,878.5537,1117.3069C876.8824,1115.8737,773.98456,1036.6124,649.83765,941.1155C525.69165,845.38007,419.45117,763.4909,413.48267,758.71625C398.20303,747.01807,446.42902,796.1983,651.03125,1001.5166C749.3937,1100.1177,828.895,1181.0513,827.7012,1181.0513C826.50726,1181.0513,729.3394,1085.077,611.8784,968.0935C398.68048,754.8961,398.4421,754.8961,423.7488,788.32025C437.59525,806.7032,519.962,914.6149,606.6259,1028.2565C745.09625,1209.4625,777.5659,1253.1521,759.8979,1234.7683C757.51086,1232.142,675.62213,1125.185,578.2154,997.2207C480.8081,869.2541,399.3965,762.7751,397.24805,760.86475C395.09955,758.7164,395.57684,760.6262,398.442,765.64C466.00598,881.6686,695.1984,1282.0387,694.4825,1282.7544C694.00543,1283.4702,692.3336,1282.5164,691.14026,1280.8453C689.70795,1279.1741,622.38257,1162.1903,541.2098,1021.0939C460.03726,879.9976,392.71176,763.49133,391.51807,762.05865C388.6531,758.95514,379.1037,735.31964,506.35345,1044.9681C568.1877,1195.1366,618.5627,1319.2834,618.0853,1320.716C616.89124,1323.8188,627.8737,1349.8419,498.95215,1036.6125C402.50052,801.69,381.01398,750.59894,385.5497,765.64C387.9371,773.5185,537.39044,1335.5181,539.06165,1342.2024C540.01654,1346.9773,539.7778,1348.6484,538.34515,1346.9773C536.9128,1345.7834,501.1008,1213.7594,458.60458,1054.0404C416.10867,894.32184,381.0136,763.9685,380.53595,764.2074C380.2973,764.6845,397.00912,898.3805,418.2572,1061.6803C439.26678,1224.7408,456.45642,1359.8695,456.21744,1362.0181C455.5012,1379.208,447.38406,1319.76,414.19855,1061.9186L376.47745,767.072L375.0451,1067.1715C374.32855,1232.1418,372.8961,1367.9863,372.18015,1368.9413C371.2252,1369.658,370.2697,1234.2913,370.0318,1068.1268 Z"/>
</g>
<g style="fill:rgb(0,0,0); fill-opacity:1.0; stroke-linejoin: miter">
<path d="M340.51532,1066.6079L365.81595,765.4194L300.49026,1058.3572C264.53134,1219.398,234.40956,1351.7091,233.6345,1352.3605C232.85927,1353.0122,232.14568,1352.9503,231.71117,1352.4337C231.27632,1351.9167,260.4263,1219.762,296.38504,1058.7211C332.5815,897.70044,361.75204,765.3076,361.61688,764.09845C361.46127,763.1259,314.75977,890.40967,257.64053,1046.7477C200.73814,1203.3419,153.3033,1330.8033,152.41325,1330.007C151.52385,1329.2112,151.4296,1327.5261,152.04927,1325.9016C157.44017,1313.427,355.0216,768.32056,354.13208,767.5246C353.6974,767.00836,291.241,885.26227,215.18062,1030.6182C139.359,1175.9939,75.869385,1295.1172,74.401306,1295.4698C72.19896,1295.999,72.28115,1295.0475,74.21321,1292.0994C76.42418,1288.6959,217.93506,1018.15564,337.6913,788.6302C346.0479,772.33844,352.4521,759.2324,351.97632,759.1916C351.50046,759.15015,273.3633,870.2987,177.98067,1006.3158C82.8363,1142.3547,4.264549,1252.9866,3.3543315,1252.4288C2.464401,1251.6329,270.34146,866.4429,343.71603,763.27075C349.17194,755.5945,349.17194,755.5945,344.26205,759.72345C341.41968,762.11346,248.90195,862.19476,138.59871,982.306C28.53352,1102.4375,-62.09298,1200.0474,-62.744896,1199.2717C-63.396873,1198.4961,-62.75686,1196.6346,-61.42347,1195.0721C-59.852394,1193.5305,27.972687,1097.8363,133.80052,982.37036C239.62881,866.9052,330.59598,768.1276,335.62888,762.57214C348.5582,748.83167,298.27164,790.0172,73.75788,978.3821C-33.181072,1067.8715,-120.657394,1140.1119,-120.5547,1138.9218C-120.45187,1137.7333,-16.470015,1049.1865,110.42766,942.2499C340.9466,748.17413,340.96716,747.93616,305.4888,770.2718C285.98206,782.4853,171.38126,855.2581,50.701878,931.81866C-141.74971,1054.1786,-188.07213,1082.7665,-168.23663,1066.7483C-165.4145,1064.5957,-51.80651,992.21594,84.06913,906.18475C219.94388,820.1537,333.0357,748.2099,335.12326,746.23364C337.44934,744.27747,335.50552,744.58887,330.26352,747.0116C208.8495,804.33813,-209.76364,998.21985,-210.41565,997.4452C-211.08801,996.9075,-209.99258,995.32495,-208.22498,994.27954C-206.43668,992.9957,-84.09173,935.98926,63.46814,867.2621C211.02809,798.53577,333.1354,741.5087,334.42746,740.42175C337.76614,737.83435,361.1637,730.5106,45.143406,829.7347C-108.56052,878.0416,-236.62274,918.0192,-239.30096,918.5072C-258.24423,921.42334,-206.22751,904.5893,44.262302,826.06366C293.50134,748.14844,346.7488,730.94293,331.37317,734.16724C323.31827,735.8675,-249.46088,836.3938,-256.26462,837.48334C-261.10416,838.0245,-262.74844,837.64197,-260.93973,836.12067C-259.40982,835.0546,-125.26811,810.6987,37.753582,782.1284C200.53786,753.53644,333.42896,729.79236,332.99405,729.275C332.77698,729.0169,198.13826,734.1589,33.61533,741.27264C-130.64958,748.16943,-266.75656,753.6647,-268.87668,753.24207C-285.94067,751.0487,-226.2532,748.0576,33.726734,737.20905L330.48917,724.985L59.69292,700.1526C-89.38175,686.55493,-224.38174,673.69336,-240.7529,671.8C-257.12415,669.9064,-134.7833,679.5174,31.065083,693.12634L332.5326,717.9723L39.594147,652.646C-121.44771,616.68756,-253.75845,586.56586,-254.41003,585.7904C-255.06207,585.0148,-255.00049,584.3017,-254.4837,583.86694C-253.96692,583.43243,-121.81174,612.58234,39.22978,648.541C200.25093,684.7381,332.64426,713.90826,333.85443,713.7732C334.82608,713.61725,207.54216,666.9163,51.20371,609.79675C-105.392494,552.8954,-232.85266,505.4594,-232.05692,504.5691C-231.26111,503.67963,-229.57553,503.58594,-227.95163,504.20483C-215.71492,509.57562,329.65146,706.94055,330.42706,706.28845C330.9435,705.8539,212.4506,643.37665,67.31237,567.5754C-78.0641,491.75317,-197.18816,428.26358,-197.5406,426.79575C-197.89296,425.32724,-193.69374,426.64865,-188.1905,429.52C-181.10486,433.48727,253.59743,660.8302,331.35455,701.09686C335.23358,703.34863,338.71924,704.6085,338.7398,704.37054C338.781,703.8953,227.65251,625.5204,91.61368,530.37494C-44.404926,434.99295,-155.03658,356.42145,-154.49933,355.74918C-153.6826,354.62115,217.04556,612.38196,334.68118,695.87256C342.33725,701.56665,342.33725,701.56665,338.22882,696.4188C335.83853,693.5764,235.75665,601.0592,115.64493,490.75537C-4.4871206,380.69022,-102.09643,290.06384,-101.32136,289.4117C-100.54621,288.7597,-98.684166,289.40002,-97.121925,290.73337C-95.58036,292.30463,0.11418912,380.12918,115.58034,485.95715C231.02592,592.02325,329.82425,682.75226,335.35928,688.023C349.57574,700.9933,305.7612,647.844,119.58978,425.67593C30.079544,318.97607,-42.161396,231.49963,-40.972042,231.60242C-39.782867,231.70526,48.764805,335.68677,155.70111,462.58435L350.01584,693.12415L323.67416,651.3083C309.1316,628.2456,236.35916,513.64514,161.88914,396.50122C43.357822,209.65279,15.1839905,164.08499,31.203114,183.92085C33.355885,186.7423,105.73492,300.35028,191.76591,436.22525C277.79785,572.10065,349.74268,685.19226,351.71902,687.27985C353.67468,689.60535,353.36298,687.6616,350.94055,682.42004C305.5306,586.71735,99.73115,142.39365,100.50622,141.74193C101.043396,141.0693,102.62644,142.16425,103.67194,143.93246C104.955284,145.72086,161.96172,268.06503,230.68875,415.625C299.4158,563.18494,356.44348,685.29175,357.52966,686.5838C360.09653,690.16016,366.28137,710.10474,268.21698,397.30048C219.91008,243.59659,179.9315,115.53441,179.44438,112.855865C176.50671,94.15078,193.14438,145.67139,271.88742,396.4192C350.04065,645.6786,367.02997,698.66754,363.78442,683.5298C362.08432,675.475,261.55713,102.69663,260.4674,95.892784C259.92725,91.053276,260.30856,89.40902,261.83014,91.217354C262.89587,92.74761,287.23184,227.12686,315.82318,389.9109C344.4149,552.69446,368.1602,685.5851,368.6564,685.3882C368.93564,684.9332,363.79266,550.295,356.67877,385.7723C349.782,221.50795,344.2863,85.4016,344.7091,83.281715C346.8819,66.45506,349.8935,125.90474,360.74255,385.88354L372.9672,682.6458L397.3887,416.60748C410.73965,270.38678,423.62094,135.14941,425.74023,116.16193C427.8599,97.17457,418.414,217.61244,404.7845,383.69742L379.8769,685.87805L400.70294,591.82434C470.0098,280.53952,510.8892,98.596214,512.1609,97.74807C512.93634,97.09568,513.6499,97.157326,514.0845,97.6742C514.5189,98.19099,485.3695,230.34595,449.4105,391.38702C413.21402,552.40784,384.04337,684.80054,384.1783,686.0102C384.3342,686.98236,431.03598,559.6982,488.15475,403.36072C545.0568,246.7652,592.2543,119.28464,593.382,120.101C594.2717,120.89676,594.36536,122.58237,593.74634,124.20601C588.3553,136.68051,391.0114,681.80817,391.6636,682.5831C392.0984,683.0999,454.55405,564.8449,530.3767,419.46948C606.43665,274.11386,669.688,154.9699,671.3943,154.63791C673.59656,154.10927,673.5143,155.06064,671.582,158.00914C669.3712,161.41205,527.86035,431.9523,408.08426,661.71606C399.74747,677.77026,393.34384,690.8759,393.8193,690.9171C394.0573,690.9376,472.4321,579.8095,567.5768,443.77084C662.9596,307.7524,741.5512,196.88332,742.2034,197.65858C743.1136,198.2162,668.0774,306.7567,575.66064,438.95792C483.26468,570.9202,405.08627,682.54443,402.07944,686.83765L396.6032,694.75214L402.34976,689.25775C405.4915,686.17456,498.0089,586.0927,607.7753,466.654C717.5412,347.21436,808.12585,250.08188,808.54016,250.83655C809.1923,251.61182,808.55176,253.47339,807.21844,255.03561C805.6473,256.57712,719.6727,350.27454,615.97345,463.2885C512.2742,576.30176,421.5454,675.1,414.14548,683.08734C396.4422,702.16656,424.80484,678.97565,672.2751,471.74664C778.97626,382.23636,866.4522,309.9959,866.34973,311.18527C866.2467,312.375,762.2656,400.9221,635.60583,507.87866L404.82846,702.17206L446.64343,675.8301C469.70624,661.28845,584.3073,588.51575,701.45026,514.04584C888.2993,395.51517,933.8677,367.3415,914.0316,383.36032C911.20953,385.51288,797.60156,457.8918,661.72644,543.9228C525.8509,629.95465,412.76004,701.8987,410.67218,703.87494C408.34705,705.83154,410.2909,705.51965,415.53223,703.0971C548.4424,640.29333,955.5583,451.88773,956.21045,452.6625C956.88306,453.20053,955.7879,454.78317,954.0198,455.8287C952.23193,457.11197,829.8866,514.1182,682.3269,582.84503C534.7671,651.573,412.89844,708.6204,411.36877,709.6867C408.0299,712.2734,384.39398,719.57697,702.87506,619.6071C944.0183,543.8679,993.2126,529.187,985.80115,534.53754C985.2842,534.9723,857.439,575.2088,701.5334,624.04407C452.2938,701.95935,399.0473,719.16565,414.42282,715.9411C422.47733,714.24023,995.25586,613.7141,1002.05994,612.62427C1006.8995,612.084,1008.5436,612.4656,1006.73505,613.98676C1005.443,615.0729,870.826,639.38824,708.0413,667.97955C545.2578,696.57104,412.36734,720.3163,412.5638,720.8126C413.0194,721.092,547.678,715.7108,712.1803,708.83514C876.44446,701.9376,1012.7893,696.4642,1014.90936,696.88666C1031.7358,699.0594,971.31433,702.22656,711.83105,712.87915L414.83127,725.08246L685.8647,749.935C834.93896,763.5324,970.17694,776.4136,986.5481,778.3073C1002.91907,780.2017,880.5782,770.59,714.7305,756.9816L413.26318,732.1359L706.2008,797.4613C867.24243,833.41943,999.55347,863.54156,1000.20465,864.3169C1000.8569,865.0926,1000.7951,865.80585,1000.2785,866.2403C999.76154,866.67487,867.6062,837.5251,706.565,801.5665C545.5444,765.36993,413.1521,736.1999,411.9419,736.33514C410.9703,736.49084,538.2538,783.19165,694.591,840.3109C851.1873,897.21234,978.64734,944.6481,977.85144,945.53784C977.05536,946.4282,975.3705,946.5216,973.7463,945.9022C961.2719,940.511,416.14432,743.16833,415.36917,743.8199C414.8524,744.25476,533.10614,806.7104,678.462,882.7698C823.83875,958.5918,942.9836,1021.84436,943.35645,1023.07495C943.4917,1024.2843,828.9924,965.5072,688.6842,892.03986C390.6081,736.40936,407.13785,744.78656,407.03497,745.9758C406.99384,746.4514,518.1427,824.5882,654.16064,919.97003C790.19946,1015.11414,900.83093,1093.686,900.2732,1094.5962C899.4773,1095.4857,514.287,827.61035,411.11447,754.23596C403.4381,748.7801,403.4381,748.7801,407.56732,753.69006C409.9578,756.5326,510.03857,849.0497,630.1505,959.35205C750.2821,1069.4177,847.8916,1160.044,847.1164,1160.6953C846.34125,1161.3473,844.4791,1160.7069,842.9172,1159.374C841.375,1157.8029,745.68115,1069.9788,630.21466,964.15015C514.7697,858.0846,415.97137,767.3566,410.43607,762.08484C396.22018,749.11505,440.0339,802.26404,626.20514,1024.4304C715.71606,1131.1315,787.95593,1218.6072,786.76666,1218.5048C785.5775,1218.4017,697.03046,1114.4204,590.0744,987.7615C396.01755,757.0054,395.77985,756.9846,418.1161,792.463C430.32898,811.9689,503.102,926.5702,579.66315,1047.2493C702.02295,1239.6998,730.6112,1286.022,714.5918,1266.1865C712.4396,1263.3641,640.06036,1149.757,554.02924,1013.8827C467.99753,878.00726,396.053,764.9166,394.07684,762.82855C392.12134,760.50287,392.43237,762.4468,394.8553,767.68896C452.1817,889.1019,646.0642,1307.713,645.28894,1308.3647C644.75165,1309.038,643.1687,1307.9429,642.1233,1306.1748C640.8402,1304.3862,583.834,1182.0426,515.1064,1034.4835C446.37897,886.9229,389.33127,765.0548,388.2654,763.5248C385.6779,760.1863,378.19846,735.8166,478.32443,1055.2678C527.00397,1210.2014,566.507,1338.223,565.9078,1339.6082C564.45135,1342.5979,573.15314,1369.4705,471.66965,1046.3063C395.79617,803.9544,378.7863,751.20355,382.01096,766.57886C383.71146,774.63336,484.2385,1347.4114,485.32806,1354.2155C485.86856,1359.0544,485.4867,1360.6991,484.20337,1358.9103C482.87897,1357.5975,458.5634,1222.9805,429.9719,1060.1971C401.38055,897.4134,377.63522,764.52313,377.1392,764.71985C376.86023,765.1749,382.00256,899.8128,389.11694,1064.3363C396.01346,1228.6,401.5085,1364.7063,401.08548,1366.8268C398.89246,1383.8901,395.922,1323.965,385.05283,1064.2241L372.84933,767.22485L345.5922,1066.0876C330.6795,1230.3843,317.56003,1365.6012,316.76462,1366.4912C315.75137,1367.1224,326.4506,1232.1759,340.51532,1066.6079 Z"/>
</g>
<g style="fill:rgb(0,0,0); fill-opacity:1.0; stroke-linejoin: miter">
<path d="M310.22507,1062.3674L362.25058,764.6293L271.0941,1050.5857C220.9354,1207.783,179.14894,1336.8854,178.3192,1337.4658C177.48895,1338.046,176.78358,1337.9209,176.39688,1337.3677C176.00984,1336.8138,216.81415,1207.7802,266.97305,1050.5819C317.36667,893.4252,358.21255,764.1564,358.18542,762.9397C358.11713,761.95715,300.26486,884.5756,229.44852,1035.2051C158.82547,1186.11,100.22709,1308.8396,99.41144,1307.968C98.596565,1307.0957,98.65275,1305.4084,99.41453,1303.846C105.895035,1291.9014,351.24048,766.5574,350.42505,765.6859C350.03842,765.13226,277.29828,877.3547,188.5942,1015.3585C100.1263,1153.4037,26.279396,1266.4,24.785717,1266.6196C22.544996,1266.9498,22.711687,1266.0096,24.898659,1263.2449C27.403904,1260.0527,192.44756,1003.1904,332.17023,785.24304C341.94452,769.7602,349.49048,757.2765,349.02036,757.1932C348.54996,757.1098,260.82413,860.85846,153.70653,987.8401C46.824085,1114.8649,-41.288593,1218.0588,-42.145344,1217.4222C-42.960926,1216.55,258.15762,856.7485,340.42957,760.5204C346.54773,753.361,346.54773,753.361,341.28943,757.036C338.2453,759.1636,237.18167,850.6076,116.61936,960.4175C-3.7077708,1070.2697,-102.66731,1159.4198,-103.24768,1158.5897C-103.82803,1157.759,-103.024734,1155.9617,-101.557434,1154.5244C-99.85533,1153.1285,-3.8565745,1065.6364,111.83444,960.0547C227.52605,854.4736,326.929,764.1905,332.43668,759.1047C346.53827,746.5706,292.78354,783.1137,52.38582,950.7346C-62.098198,1030.3441,-155.66098,1094.5065,-155.45267,1093.3309C-155.24431,1092.1559,-43.78964,1013.2213,92.12784,918.01154C339.01538,745.2376,339.05725,745.0024,301.73087,764.08966C281.2136,774.517,160.58693,836.7945,33.568504,902.3029C-169.01588,1007.0359,-217.70044,1031.3846,-196.51688,1017.19604C-193.51428,1015.30334,-73.91175,953.3303,69.08616,879.74207C212.08302,806.1549,331.13312,744.5683,333.38837,742.7864C335.87906,741.0449,333.9154,741.1819,328.47842,743.12823C202.4412,789.41327,-231.77542,945.2423,-232.35574,944.41235C-232.97772,943.81726,-231.74576,942.3385,-229.892,941.4546C-227.99661,940.3351,-101.0607,894.4518,52.033516,839.13983C205.12828,783.8278,331.82907,737.90295,333.21277,736.93585C336.76868,734.65576,360.72552,729.445,37.123928,800.1294C-120.27127,834.55475,-251.38501,862.96796,-254.09592,863.2155C-273.22388,864.4333,-219.91446,852.29834,36.573364,796.39453C291.7613,740.9866,346.3295,728.5918,330.72763,730.4338C322.5535,731.41,-256.90204,780.52344,-263.77582,781.0024C-268.6445,781.1105,-270.24823,780.5837,-268.31113,779.2289C-266.69232,778.30396,-130.91461,765.99164,34.003498,752.05396C198.68721,738.0736,333.165,726.25946,332.77808,725.7058C332.58472,725.42865,198.02309,718.55896,33.52041,710.99194C-130.70569,703.23145,-266.76102,696.5832,-268.83505,695.9734C-285.63586,692.2688,-225.91934,694.6058,33.993362,706.95416L330.6652,721.2096L63.156796,672.35785C-84.11436,645.53784,-217.43236,620.704,-233.56958,617.3599C-249.70718,614.01556,-128.70868,634.4844,35.268375,662.81024L333.32507,714.4072L47.368885,623.25024C-109.83012,573.09155,-238.93228,531.306,-239.51227,530.47546C-240.09274,529.6453,-239.96762,528.94,-239.4143,528.55365C-238.86096,528.1666,-109.82705,568.97076,47.37158,619.1293C204.52893,669.5232,333.79828,710.3688,335.01547,710.3421C335.99728,710.2734,213.37846,652.4215,62.74865,581.605C-88.15717,510.9831,-210.88594,452.3836,-210.01402,451.56787C-209.14232,450.7527,-207.45503,450.8095,-205.8926,451.57074C-194.18294,458.00964,331.43765,703.16205,332.26837,702.58185C332.82175,702.19476,220.36394,629.4127,82.55365,540.9861C-55.491947,452.5172,-168.48796,378.6709,-168.70831,377.1773C-168.92853,375.68338,-164.86365,377.37326,-159.638,380.72366C-152.93398,385.30618,259.79297,650.4613,333.6547,697.49316C337.31787,700.08185,340.67746,701.64667,340.719,701.412C340.80222,700.94165,237.09581,612.9812,110.07151,506.09778C-16.911442,398.9807,-120.10544,310.86874,-119.51051,310.2471C-118.596634,309.19595,227.70132,598.9501,337.43338,692.58606C344.55164,698.9393,344.55164,698.9393,340.91843,693.44604C338.79062,690.40216,247.3464,589.339,137.53603,468.77563C27.684069,348.44885,-61.465652,249.48962,-60.635483,248.90921C-59.80542,248.3288,-58.00779,249.1322,-56.57058,250.59961C-55.175007,252.30173,32.31708,348.30035,137.899,463.99084C243.4392,579.91766,333.76422,679.08527,338.80792,684.82825C351.8127,699.013,312.90607,642.17267,147.26108,404.30646C67.61005,290.05884,3.446952,196.49562,4.6223745,196.70381C5.797812,196.91206,84.7326,308.36703,179.94185,444.28427L352.952,691.21387L330.4391,647.2187C318.0083,622.9522,255.7316,502.3258,191.99092,379.0152C90.5722,182.35216,66.56855,134.45647,80.75742,155.64C82.65031,158.64224,144.62341,278.2448,218.21117,421.24173C291.79953,564.2396,353.38605,683.28937,355.16873,685.54456C356.9097,688.03534,356.77222,686.0714,354.82635,680.6349C318.12048,581.26843,152.71147,120.38101,153.54163,119.80084C154.13666,119.17859,155.6158,120.41048,156.49985,122.26471C157.61874,124.16023,203.50212,251.09552,258.8139,404.19012C314.12573,557.28467,360.0516,683.9854,361.01855,685.36945C363.2565,689.1597,367.6406,709.5761,297.8253,389.28058C263.39972,231.8854,234.98578,100.771416,234.73895,98.06042C233.47874,79.16791,245.46158,131.9654,301.55966,388.73007C357.2021,643.95984,369.4049,698.25104,367.52014,682.8841C366.54428,674.70984,317.43015,95.25439,316.95056,88.38033C316.8437,83.51174,317.3698,81.90803,318.72412,83.84486C319.6493,85.46415,331.9205,221.47652,345.90012,386.15994C359.88007,550.84357,371.69565,685.3212,372.2076,685.1696C372.5259,684.741,379.3948,550.1797,386.96225,385.6767C394.723,221.45094,401.37125,85.39611,401.9813,83.32197C405.6437,66.75583,403.34857,126.2375,391.00003,386.1497L376.7453,682.8219L424.76382,420.01578C451.0844,275.56458,475.95923,142.0118,479.7616,123.28851C483.56393,104.56516,463.42862,223.68306,435.0613,387.89453L383.3397,686.657L412.45956,594.83093C509.21518,290.95602,566.1368,113.37587,567.47894,112.64432C568.309,112.06386,569.0144,112.18883,569.4011,112.74216C569.7881,113.295395,528.9844,242.3295,478.82523,399.5285C428.43134,556.6854,387.5855,685.9544,387.61227,687.1711C387.68115,688.1533,445.53348,565.534,516.349,414.90494C586.9722,263.9993,645.33594,141.2287,646.3859,142.14209C647.2014,143.01387,647.1447,144.70108,646.38324,146.2633C639.9026,158.20811,394.7927,683.59436,395.37308,684.4247C395.76004,684.97784,468.49954,572.75543,556.9689,434.71C645.6724,296.7061,719.28357,183.66849,721.0126,183.48984C723.25336,183.15927,723.0869,184.09943,720.89966,186.86438C718.39435,190.05688,553.3506,446.91916,413.58676,665.10236C403.85364,680.35034,396.308,692.83356,396.7778,692.91705C397.01297,692.9588,484.97403,589.2525,591.85657,462.2282C698.97473,335.24484,787.12787,231.81544,787.70874,232.64558C788.56555,233.28206,704.1608,334.70895,600.3372,458.15417C496.55508,581.3635,408.74585,685.58093,405.36838,689.58997L399.2093,696.9848L405.42242,692.02405C408.826,689.233,509.8897,597.7887,629.857,488.59998C749.82495,379.41147,848.70087,290.73187,849.0462,291.5205C849.6265,292.35062,848.82245,294.14804,847.35583,295.5854C845.6536,296.98108,751.67584,382.64905,638.3226,485.9779C524.97,589.3073,425.80228,679.6321,417.72067,686.9289C398.3883,704.3557,428.7039,683.7832,693.6476,499.41705C807.89685,419.76572,901.45905,355.6024,901.2508,356.77814C901.04297,357.9538,789.5877,436.88797,653.90546,532.1396L406.7408,705.10803L450.73575,682.5948C475.00198,670.1648,595.629,607.8878,718.9394,544.1469C915.6031,442.7285,963.49945,418.72464,942.31573,432.91324C939.3133,434.80606,819.7098,496.7796,676.71234,570.3672C533.7145,643.956,414.6656,705.5424,412.40967,707.3247C409.91943,709.0662,411.88336,708.9285,417.31973,706.98236C555.29504,656.2651,977.5742,504.86694,978.1548,505.69678C978.77655,506.29254,977.545,507.7716,975.6911,508.65546C973.79535,509.77423,846.8589,555.6577,693.7647,610.96954C540.66986,666.2823,414.2045,712.2496,412.58594,713.17523C409.02975,715.45465,384.83755,720.62415,710.9566,649.4153C957.8877,595.4541,1008.19385,585.21295,1000.33545,589.88196C999.7818,590.26917,868.8614,618.95935,709.2253,653.7152C454.03656,709.1233,399.46912,721.5189,415.07068,719.67676C423.2447,718.7001,1002.7015,669.58636,1009.57526,669.10675C1014.4436,668.9998,1016.04706,669.52594,1014.11005,670.8806C1012.72656,671.84705,876.47833,684.0762,711.79443,698.05634C547.11096,712.036,412.63382,723.8513,412.7854,724.3636C413.21414,724.6825,547.8167,731.3157,712.278,739.11804C876.50415,746.8779,1012.7945,753.5687,1014.8684,754.17847C1031.435,757.8412,970.9717,755.6146,711.57,743.1149L414.66357,728.8184L682.406,777.7106C829.6772,804.5306,963.23083,829.4057,979.3683,832.7498C995.50494,836.09424,874.5065,815.62494,710.5297,787.3004L412.47318,735.70386L698.4286,826.8597C855.6283,877.0177,984.7306,918.804,985.3105,919.6341C985.8911,920.4644,985.7661,921.16943,985.2126,921.55664C984.6592,921.94336,855.6252,881.1398,698.42596,830.98083C541.2689,780.5871,412.00043,739.74176,410.78323,739.76874C409.8014,739.83734,532.4201,797.689,683.04877,868.50433C833.9554,939.1277,956.68445,997.72656,955.8122,998.5421C954.9403,999.3579,953.2536,999.3013,951.6912,998.5393C939.7464,992.0585,414.36014,746.9487,413.53024,747.52856C412.97687,747.9161,525.1981,820.6552,663.2027,909.3586C801.2484,997.8269,914.2869,1071.4395,914.5483,1072.6984C914.57526,1073.9152,805.7659,1005.1736,672.5584,919.50244C389.52753,737.9426,405.2456,747.75854,405.0371,748.9343C404.9538,749.4042,508.70197,837.12994,635.68494,944.2471C762.70917,1051.1298,865.90405,1139.2415,865.26733,1140.0983C864.39514,1140.9137,504.5924,839.79626,408.3645,757.52454C401.20468,751.40717,401.20468,751.40717,404.88028,756.6646C407.00797,759.7087,498.45145,860.77185,608.2626,981.33435C718.1133,1101.6608,807.2634,1200.6199,806.4332,1201.2008C805.6031,1201.7808,803.80566,1200.9773,802.36865,1199.5105C800.97253,1197.8082,713.4805,1101.8099,607.8993,986.11926C502.35913,870.19293,412.03378,771.0253,406.98975,765.2823C393.98584,751.09796,432.89163,807.9376,598.537,1045.8032C678.1888,1160.0521,742.3508,1253.614,741.1755,1253.4066C739.99994,1253.1979,661.0657,1141.7432,565.8152,1006.06165C393.08133,758.9387,392.84628,758.89685,411.93408,796.22314C422.36127,816.7402,484.6387,937.3674,550.14703,1064.3854C654.88074,1266.9688,679.2295,1315.6537,665.0406,1294.4698C663.14813,1291.467,601.1747,1171.8655,527.58685,1028.8679C453.99814,885.8708,392.41183,766.8218,390.62958,764.5656C388.88916,762.0755,389.0257,764.0392,390.97205,769.4758C437.2571,895.51245,593.08685,1329.7295,592.25635,1330.3094C591.6613,1330.9313,590.18225,1329.6995,589.2986,1327.8462C588.18,1325.9498,542.2962,1199.0144,486.98392,1045.9207C431.67166,892.8257,385.70462,766.36035,384.77896,764.7418C382.4992,761.1856,377.2203,736.2469,448.4967,1063.3466C483.18402,1222.0011,511.12796,1353.0315,510.40817,1354.3582C508.69058,1357.2052,514.96466,1384.7456,442.66672,1053.8275C388.6788,805.68164,376.4354,751.62494,378.2777,767.22687C379.2542,775.40063,428.36786,1354.8552,428.84732,1361.7296C428.95425,1366.5973,428.42767,1368.201,427.3087,1366.3059C426.10654,1364.8805,413.87717,1228.6332,399.89716,1063.9498C385.91757,899.2667,374.10242,764.7892,373.59067,764.94147C373.27225,765.3698,366.40335,899.93066,358.8362,1064.4336C351.07556,1228.6589,344.42667,1364.7134,343.81662,1366.788C340.11224,1383.5884,342.49103,1323.6376,354.79797,1063.9606L369.0948,767.0542L315.32834,1062.3015C285.842,1224.6174,260.73184,1358.1287,259.86002,1358.9441C258.79477,1359.4823,281.4707,1226.0253,310.22507,1062.3674 Z"/>
</g>
<g style="fill:rgb(0,0,0); fill-opacity:1.0; stroke-linejoin: miter">
<path d="M303.9343,1061.1372L361.51355,764.4233L265.03018,1048.6259C211.94307,1204.8591,167.75188,1333.1582,166.91145,1333.7225C166.07056,1334.2865,165.36766,1334.1492,164.99138,1333.5883C164.61467,1333.0273,207.82271,1204.7792,260.91003,1048.5461C314.2314,892.35834,357.48505,763.8748,357.4807,762.6582C357.4307,761.67456,297.29764,883.1912,223.67921,1032.471C150.24904,1182.0299,89.36788,1303.6426,88.56864,1302.7554C87.77019,1301.8677,87.85802,1300.1824,88.64884,1298.6344C95.35136,1286.8132,350.46906,766.14526,349.67032,765.2587C349.294,764.69855,274.46997,875.54175,183.20277,1011.864C92.17129,1148.2324,16.226114,1259.8284,14.728643,1260.0204C12.481836,1260.3087,12.66614,1259.3716,14.904524,1256.6484C17.46884,1253.5032,187.28282,999.7704,331.05328,784.4715C341.11508,769.174,348.8929,756.83356,348.4243,756.7413C347.95596,756.64923,258.30692,858.7403,148.83556,983.6986C39.59844,1108.7037,-50.426895,1210.2332,-51.27163,1209.5812C-52.070786,1208.6937,255.71776,854.58185,339.77304,759.9078C346.02383,752.8638,346.02383,752.8638,340.69785,756.4397C337.6146,758.51,234.86017,848.05023,112.26716,955.588C-10.091353,1063.1722,-110.69945,1150.4576,-111.264175,1149.6167C-111.82889,1148.7755,-110.99213,1146.9929,-109.498184,1145.5834C-107.770386,1144.2198,-10.153594,1058.537,107.49002,955.13574C225.13393,851.7351,326.2065,763.32477,331.8081,758.34283C346.14166,746.0742,291.71353,781.6063,48.225624,944.70654C-67.72558,1022.1631,-162.47093,1084.5657,-162.24074,1083.3953C-162.01051,1082.2239,-49.100296,1005.38513,88.57217,912.73224C338.6447,744.6009,338.69077,744.3666,301.01462,762.7532C280.30588,772.7955,158.53677,832.808,30.316635,895.9315C-174.18927,996.86145,-223.3201,1020.2959,-201.87521,1006.50574C-198.8378,1004.6699,-78.09812,944.9425,66.249504,874.03864C210.59651,803.1356,330.7763,743.78485,333.0645,742.0448C335.5875,740.3504,333.6216,740.45056,328.14896,742.295C201.26906,786.2172,-235.7833,933.9057,-236.34802,933.0654C-236.95871,932.45856,-235.69925,931.00305,-233.82935,930.15375C-231.91336,929.07007,-104.14229,885.56683,49.958576,833.1245C204.05997,780.68286,331.59692,737.13324,332.99823,736.192C336.59625,733.9791,360.64612,729.2168,35.780396,793.84235C-122.23053,825.32074,-253.85211,851.2793,-256.5673,851.47644C-275.71472,852.3362,-222.18787,841.19995,35.299694,790.09796C291.4783,739.468,346.26852,728.09424,330.63498,729.64496C322.4442,730.4682,-257.82806,768.74615,-264.70963,769.09686C-269.57928,769.1141,-271.173,768.55725,-269.21103,767.2389C-267.57516,766.34424,-131.59102,756.57104,33.558838,745.71765C198.4748,734.8161,333.15005,725.5166,332.7734,724.95575C332.58527,724.6756,198.17552,715.29297,33.842876,704.6534C-130.20947,693.82605,-266.11685,684.63654,-268.17902,683.98755C-284.90778,679.9705,-225.24524,683.42236,34.3913,700.6251L330.74478,720.4213L64.19601,666.5801C-82.54835,637.01276,-215.37889,609.69244,-231.45084,606.04694C-247.52313,602.40216,-126.92824,625.12823,36.490856,656.51263L333.5314,713.6696L49.32841,617.18616C-106.90609,564.0989,-235.2049,519.90826,-235.76932,519.0672C-236.3342,518.22626,-236.19592,517.52356,-235.63547,517.14703C-235.07489,516.77106,-106.825966,559.9786,49.40821,613.0654C205.59659,666.387,334.0799,709.6408,335.29742,709.6369C336.2804,709.5865,214.76392,649.45374,65.483604,575.83527C-84.07641,502.40594,-205.68892,441.52365,-204.80186,440.72446C-203.91512,439.92563,-202.22914,440.01407,-200.68135,440.8044C-189.09398,447.4612,331.85498,702.39124,332.69617,701.82697C333.25644,701.45026,222.17796,626.5795,86.04403,535.5933C-50.32478,444.56076,-161.92104,368.61597,-162.11342,367.11877C-162.3057,365.6208,-158.2733,367.38647,-153.11108,370.8337C-146.49377,375.54083,261.20715,648.3613,334.17737,696.7649C337.7915,699.4215,341.121,701.0493,341.16718,700.81494C341.2591,700.3466,239.2142,610.4638,114.209,501.2254C-10.750447,391.7545,-112.28026,301.72955,-111.673805,301.11926C-110.74038,300.0857,230.08333,596.2595,338.04694,691.9294C345.0453,698.41425,345.0453,698.41425,341.51532,692.8543C339.44473,689.7708,249.90471,587.01697,142.36601,464.42285C34.78137,342.06485,-52.503918,241.45694,-51.66305,240.89218C-50.822193,240.32733,-49.03995,241.16449,-47.63036,242.65817C-46.26681,244.3862,39.416267,342.0025,142.81828,459.64575C246.17398,577.5242,334.6305,678.3625,339.5662,684.198C352.30362,698.62384,314.46555,641.06647,153.29398,400.14682C75.79137,284.4309,13.387692,189.68498,14.559124,189.91533C15.730412,190.1457,92.568924,303.0559,185.22203,440.72855L353.5885,690.8471L331.9013,646.43884C319.92633,621.94495,259.91418,500.1759,198.48831,375.6954C100.7619,177.1722,77.65736,128.83644,91.44802,150.28145C93.2844,153.3184,153.01212,274.0577,223.91519,418.4049C294.81903,562.7528,354.17044,682.93176,355.91083,685.2202C357.60468,687.7431,357.50424,685.7772,355.66006,680.3052C320.8168,580.2704,164.04823,116.37259,164.88905,115.80847C165.49548,115.19765,166.95145,116.45647,167.80058,118.32709C168.88405,120.243195,212.38765,248.01373,264.82947,402.11475C317.27118,556.21625,360.82208,683.7527,361.76273,685.1545C363.9297,688.98627,367.93127,709.48047,304.11243,387.93677C272.63373,229.9256,246.67442,98.30425,246.47855,95.58871C245.5714,76.67604,256.56592,129.6884,307.85635,387.4558C358.7209,643.68066,369.9071,698.1904,368.31015,682.7912C367.48672,674.5999,329.20746,94.32819,328.85666,87.44654C328.84064,82.57667,329.39664,80.983116,330.7147,82.94482C331.6093,84.581184,341.3372,220.79909,352.2374,385.71494C363.138,550.6309,372.4391,685.3061,372.95358,685.1637C373.2799,684.74115,382.6618,550.3313,393.30145,385.999C404.12936,221.94682,413.31836,86.04017,413.96686,83.97791C417.93814,67.482864,414.53238,126.91127,397.32956,386.54742L377.5345,682.90137L430.45496,421.03815C459.46997,277.10406,486.83533,144.03955,490.9872,125.39055C495.13864,106.74151,472.781,225.46231,441.35068,389.11517L384.05597,686.85895L414.88647,595.59326C517.30273,293.5792,577.53253,117.09346,578.88806,116.3871C579.729,115.82234,580.4319,115.96037,580.8079,116.520615C581.1844,117.08153,537.9769,245.33047,484.88995,401.5646C431.56796,557.75287,388.31445,686.2356,388.3183,687.4531C388.36865,688.43646,448.5018,566.9193,522.1197,417.63956C595.5501,268.07986,656.1971,146.42116,657.23004,147.35417C658.02893,148.24104,657.9407,149.92686,657.1502,151.47446C650.4477,163.2964,395.56418,684.0112,396.12933,684.8514C396.50546,685.4123,471.3291,574.5687,562.3622,438.20004C653.6285,301.87766,729.33905,190.23544,731.07166,190.08911C733.3179,189.8003,733.13367,190.73737,730.8952,193.46077C728.33093,196.60597,558.5162,450.33984,414.70062,665.8734C404.68387,680.9365,396.90668,693.27716,397.37485,693.36926C397.60934,693.41534,487.4926,591.3704,596.72955,466.3651C706.2013,341.4058,796.2719,239.64157,796.83685,240.4827C797.68195,241.13489,711.3967,340.9666,605.2849,462.45038C499.21896,583.69965,409.47778,686.25775,406.02603,690.2032L399.72986,697.48157L406.03458,692.6379C409.4899,689.911,512.2444,600.3704,634.2308,493.4425C756.21796,386.51468,856.73346,299.69827,857.0638,300.49307C857.62866,301.33395,856.79126,303.11603,855.298,304.52548C853.5699,305.8892,758.0076,389.7861,642.7439,490.97943C527.4803,592.17267,426.6427,680.6288,418.42596,687.7735C398.7714,704.83563,429.4658,684.8332,697.8081,505.4497C813.52527,427.9468,908.2708,365.5434,908.04004,366.71466C907.8098,367.88626,794.89996,444.72458,657.4614,537.4238L407.1082,705.744L451.51593,684.05664C476.01047,672.0826,597.77966,612.0704,722.25964,550.6441C920.784,452.918,969.12,429.81332,947.6756,443.60434C944.63806,445.44028,823.8978,505.16785,679.55023,576.0711C535.2023,646.9748,415.02335,706.32605,412.73444,708.06604C410.21234,709.7606,412.1784,709.65967,417.65036,707.8156C556.54895,659.6855,981.5832,516.2035,982.1482,517.04425C982.7591,517.65173,981.49976,519.1073,979.6294,519.9563C977.7141,521.03937,849.9419,564.54333,695.84064,616.98486C541.73914,669.42725,414.43698,713.02356,412.8015,713.91895C409.20337,716.131,384.91864,720.84796,712.3115,655.7453C960.2075,606.4068,1010.69653,597.10724,1002.75226,601.62946C1002.1916,602.0055,870.75775,628.2449,710.5002,660.012C454.3204,710.64215,399.53104,722.016,415.16415,720.46606C423.35526,719.64185,1003.6285,681.364,1010.5102,681.01276C1015.3794,680.99646,1016.9728,681.55286,1015.0113,682.8708C1013.6096,683.8114,877.1566,693.4926,712.2405,704.39325C547.32434,715.29346,412.6501,724.594,412.7919,725.1088C413.21463,725.4354,547.66986,734.58276,711.95667,745.45685C876.0091,756.2837,1012.15076,765.5198,1014.2131,766.168C1030.708,770.1399,970.29645,766.7838,711.174,749.43964L414.58646,729.598L681.3685,783.48395C828.1132,813.0516,961.1786,840.4179,977.2506,844.0626C993.32227,847.7081,872.7278,824.98157,709.30865,793.598L412.26767,736.44135L696.4704,832.9246C852.70544,886.0108,981.00446,930.20245,981.56854,931.0431C982.13336,931.884,981.99536,932.5862,981.4348,932.9632C980.8746,933.3394,852.62524,890.132,696.3903,837.045C540.20245,783.72327,411.7197,740.4699,410.5023,740.4742C409.51926,740.52423,531.0357,800.6569,680.3152,874.2747C829.87616,947.70483,951.48816,1008.5863,950.6013,1009.3856C949.714,1010.18494,948.0291,1010.0967,946.481,1009.3058C934.65936,1002.6033,413.94443,747.7199,413.1038,748.28375C412.54303,748.66077,523.38605,823.48444,659.70905,914.75055C796.0776,1005.78296,907.7213,1081.4944,907.9585,1082.7576C907.96313,1083.9747,800.45703,1013.2129,668.87396,925.06757C389.28433,738.25073,404.8161,748.3589,404.58575,749.5303C404.49377,749.99866,506.58475,839.6476,631.5443,949.119C756.5493,1058.356,858.0796,1148.381,857.4272,1149.2256C856.5402,1150.0243,502.42618,842.2366,407.7521,758.1815C400.708,751.93164,400.708,751.93164,404.2844,757.2568C406.355,760.33997,495.89456,863.09406,603.43365,985.68713C711.0176,1108.045,798.30286,1208.6527,797.462,1209.2179C796.62085,1209.7828,794.8389,1208.9458,793.42926,1207.4518C792.0652,1205.724,706.38275,1108.1084,602.9814,990.4645C499.62537,872.58673,411.1687,771.74817,406.23273,765.9121C393.49615,751.4872,431.33334,809.0438,592.5054,1049.9631C670.0085,1165.6799,732.41095,1260.4241,731.23956,1260.194C730.0684,1259.9644,653.2305,1147.0543,560.53143,1009.61646C392.4451,759.3099,392.21118,759.26404,410.59802,796.9402C420.64,817.64844,480.65268,939.41833,543.7764,1067.638C644.707,1272.1431,668.14154,1321.2751,654.351,1299.8278C652.5152,1296.7906,592.78723,1176.0514,521.8839,1031.7052C450.97946,887.3582,391.62878,767.1789,389.88867,764.8901C388.19513,762.36774,388.29492,764.3336,390.13928,769.80597C434.06195,896.6851,581.75085,1333.7369,580.9101,1334.3015C580.3035,1334.9126,578.84766,1333.653,577.99866,1331.783C576.9159,1329.8671,533.41144,1202.0964,480.96936,1047.9957C428.52716,893.8944,384.9311,766.59204,384.0362,764.9567C381.8232,761.35895,377.0107,736.32587,442.16348,1064.7C473.88037,1223.9742,499.37134,1355.5038,498.62662,1356.8174C496.8565,1359.6321,502.61478,1387.2845,436.51233,1055.074C387.1701,805.9622,375.93875,751.6864,377.4891,767.31964C378.3127,775.5103,416.5917,1355.7812,416.94257,1362.6636C416.9586,1367.5327,416.40213,1369.1263,415.3186,1367.2103C414.14325,1365.7623,404.4614,1229.31,393.56134,1064.3949C382.661,899.4793,373.36053,764.8049,372.8457,764.9476C372.51962,765.36945,363.13745,899.7785,352.49832,1064.1115C341.6706,1228.1636,332.481,1364.07,331.83237,1366.1322C327.81445,1382.8612,331.3131,1322.9644,348.46948,1063.5631L368.31125,766.97595L309.03775,1061.1669C276.52405,1222.903,248.92363,1355.9225,248.03682,1356.7214C246.96161,1357.2399,272.12692,1224.2294,303.9343,1061.1372 Z"/>
</g>
</g>
</g>
</svg>